<?xml version="1.0" encoding="UTF-8"?>
<svg xmlns="http://www.w3.org/2000/svg" width="960" height="320" viewBox="0 0 960 320" role="img" aria-labelledby="title desc">
  <title id="title">xKMS project logo</title>
  <desc id="desc">A stylized logo for xKMS combining a refined key management mark with enterprise typography and multi-backend positioning.</desc>
  <defs>
    <linearGradient id="panel" x1="0%" y1="0%" x2="100%" y2="100%">
      <stop offset="0%" stop-color="#ddd6fe"/>
      <stop offset="52%" stop-color="#c4b5fd"/>
      <stop offset="100%" stop-color="#a78bfa"/>
    </linearGradient>
    <linearGradient id="frame" x1="0%" y1="0%" x2="100%" y2="100%">
      <stop offset="0%" stop-color="#a78bfa"/>
      <stop offset="100%" stop-color="#c084fc"/>
    </linearGradient>
    <linearGradient id="core" x1="0%" y1="0%" x2="100%" y2="100%">
      <stop offset="0%" stop-color="#f3e8ff"/>
      <stop offset="100%" stop-color="#d8b4fe"/>
    </linearGradient>
    <linearGradient id="link" x1="0%" y1="0%" x2="100%" y2="0%">
      <stop offset="0%" stop-color="#edd5ff" stop-opacity="0.08"/>
      <stop offset="50%" stop-color="#edd5ff" stop-opacity="0.54"/>
      <stop offset="100%" stop-color="#edd5ff" stop-opacity="0.08"/>
    </linearGradient>
    <filter id="shadow" x="-20%" y="-20%" width="140%" height="140%">
      <feDropShadow dx="0" dy="12" stdDeviation="10" flood-color="#8b5cf6" flood-opacity="0.08"/>
    </filter>
  </defs>

  <rect x="24" y="24" width="912" height="272" rx="36" fill="#faf7ff"/>

  <g filter="url(#shadow)">
    <rect x="48" y="48" width="224" height="224" rx="52" fill="url(#panel)"/>

    <rect x="84" y="84" width="152" height="152" rx="36" fill="url(#frame)" opacity="0.16"/>
    <rect x="96" y="96" width="128" height="128" rx="32" fill="#a78bfa"/>
    <rect x="108" y="108" width="104" height="104" rx="25" fill="none" stroke="#ffffff" stroke-opacity="0.34" stroke-width="4"/>

    <path d="M98 132h18M98 160h18M98 188h18M204 132h18M204 160h18M204 188h18"
          stroke="url(#link)"
          stroke-width="6"
          stroke-linecap="round"/>

    <rect x="88" y="150" width="18" height="18" rx="6" fill="#f5f3ff"/>
    <rect x="214" y="150" width="18" height="18" rx="6" fill="#f5f3ff"/>

    <g>
      <circle cx="160" cy="160" r="45" fill="#faf5ff"/>
      <circle cx="160" cy="160" r="32" fill="none" stroke="#8b5cf6" stroke-opacity="0.16" stroke-width="4"/>
      <g transform="translate(104 102) scale(5.55)">
        <path d="M12.66 13.67C12.32 14 11.93 14.29 11.5 14.5V21L9.5 23L7.5 21L9.5 19.29L8 18L9.5 16.71L7.5 15V14.5C6 13.77 5 12.26 5 10.5C5 8 7 6 9.5 6C9.54 6 9.58 6 9.61 6C9.59 6.07 9.54 6.12 9.5 6.18C9.23 6.79 9.08 7.43 9.03 8.08C8.43 8.28 8 8.84 8 9.5C8 10.33 8.67 11 9.5 11C9.53 11 9.57 11 9.6 11C10.24 12.25 11.34 13.2 12.66 13.67M16 6C16 5.37 15.9 4.75 15.72 4.18C17.06 4.56 18.21 5.55 18.73 6.96C19.33 8.62 18.89 10.39 17.75 11.59L20 17.68L18.78 20.25L16.22 19.05L17.5 16.76L15.66 16.06L16.63 14.34L14.16 13.41L14 12.95C12.36 12.77 10.88 11.7 10.27 10.04C9.42 7.71 10.63 5.12 12.96 4.27C13.14 4.21 13.33 4.17 13.5 4.13C12.84 2.87 11.53 2 10 2C7.79 2 6 3.79 6 6C6 6.09 6 6.17 6.03 6.26C5.7 6.53 5.4 6.82 5.15 7.15C5.06 6.78 5 6.4 5 6C5 3.24 7.24 1 10 1S15 3.24 15 6C15 7.16 14.6 8.21 13.94 9.06C16.08 8.88 16 6 16 6M12.81 8.1C12.87 8.27 12.96 8.41 13.06 8.54C13.62 7.88 13.97 7.04 14 6.11C13.89 6.13 13.8 6.15 13.7 6.18C12.92 6.47 12.5 7.33 12.81 8.1Z"
              fill="#6d28d9"/>
      </g>
    </g>
  </g>

  <g transform="translate(314 86)">
    <text x="0" y="72" fill="#24103f" font-size="78" font-weight="700" font-family="'Plus Jakarta Sans', 'Trebuchet MS', 'Segoe UI', sans-serif" letter-spacing="0.5">xKMS</text>
    <text x="2" y="118" fill="#7c3aed" font-size="24" font-weight="600" font-family="'Plus Jakarta Sans', 'Trebuchet MS', 'Segoe UI', sans-serif" letter-spacing="2">SECURE KEY MANAGEMENT</text>
    <path d="M2 148 h520" stroke="#eadffb" stroke-width="4" stroke-linecap="round"/>
    <text x="0" y="190" fill="#695788" font-size="24" font-family="'Plus Jakarta Sans', 'Trebuchet MS', 'Segoe UI', sans-serif">
      <tspan>Software</tspan>
      <tspan dx="18">•</tspan>
      <tspan dx="18">Hardware</tspan>
      <tspan dx="18">•</tspan>
      <tspan dx="18">Cloud KMS</tspan>
      <tspan dx="18">•</tspan>
      <tspan dx="18">Unified API</tspan>
    </text>
  </g>
</svg>
